<svg width="140" height="140" viewBox="0 0 140 140" fill="none" xmlns="http://www.w3.org/2000/svg">
<circle cx="69.375" cy="74.375" r="43.875" fill="#F2EEE3"/>
<circle cx="28.25" cy="44.75" r="2.75" fill="#F2EEE3"/>
<circle cx="100.625" cy="26.875" r="5.125" fill="#F2EEE3"/>
<circle cx="29.125" cy="102.625" r="4.875" fill="#F2EEE3"/>
<circle cx="116.375" cy="97.875" r="4.875" fill="#F2EEE3"/>
<circle cx="106.875" cy="103.375" r="2.375" fill="#F2EEE3"/>
<path d="M118.665 82.8325L119.43 86.4494L122.995 87.226L119.43 88.0027L118.665 91.6196L117.899 88.0027L114.334 87.226L117.899 86.4494L118.665 82.8325Z" fill="white"/>
<path d="M114.086 45.9055C114.142 45.6412 114.519 45.6412 114.575 45.9055L115.063 48.2087C115.083 48.305 115.158 48.3803 115.254 48.4012L117.54 48.8992C117.803 48.9564 117.803 49.3306 117.54 49.3878L115.254 49.8858C115.158 49.9067 115.083 49.9821 115.063 50.0783L114.575 52.3815C114.519 52.6459 114.142 52.6459 114.086 52.3815L113.599 50.0783C113.578 49.9821 113.503 49.9067 113.407 49.8858L111.121 49.3878C110.859 49.3306 110.859 48.9564 111.121 48.8992L113.407 48.4012C113.503 48.3803 113.578 48.305 113.599 48.2087L114.086 45.9055Z" fill="#FFBB1D"/>
<path d="M23.3057 76.1555C23.3617 75.8912 23.7389 75.8912 23.7949 76.1555L24.6306 80.1036C24.651 80.1998 24.7259 80.2752 24.822 80.2961L28.7293 81.1473C28.9917 81.2045 28.9917 81.5787 28.7293 81.6359L24.822 82.4871C24.7259 82.508 24.651 82.5834 24.6306 82.6796L23.7949 86.6277C23.7389 86.8921 23.3617 86.8921 23.3057 86.6277L22.47 82.6796C22.4497 82.5834 22.3748 82.508 22.2787 82.4871L18.3713 81.6359C18.1089 81.5787 18.1089 81.2045 18.3713 81.1473L22.2787 80.2961C22.3748 80.2752 22.4497 80.1998 22.47 80.1036L23.3057 76.1555Z" fill="#FFBB1D"/>
<path d="M38.8813 34.1343C38.7364 34.1034 38.7364 33.8966 38.8813 33.8657L41.0727 33.3997C41.1256 33.3885 41.1669 33.3473 41.1783 33.2946L41.6502 31.1186C41.6815 30.9744 41.8872 30.9744 41.9185 31.1186L42.3903 33.2946C42.4017 33.3473 42.4431 33.3885 42.4959 33.3997L44.6873 33.8657C44.8322 33.8966 44.8322 34.1034 44.6873 34.1343L42.4959 34.6003C42.4431 34.6115 42.4017 34.6527 42.3903 34.7054L41.9185 36.8814C41.8872 37.0256 41.6815 37.0256 41.6502 36.8814L41.1783 34.7054C41.1669 34.6527 41.1256 34.6115 41.0727 34.6003L38.8813 34.1343Z" fill="#FFBB1D"/>
<path d="M42.3105 109.657L57.3087 88.8259L57.9752 88.326L59.475 87.9927H61.6414L62.808 88.8259L63.9745 89.3258L64.9743 90.4924L65.8076 92.3255L52.8092 116.822L51.3094 117.656H49.4763L46.9766 116.822L44.9769 115.989L43.1438 113.489L42.3105 112.49V109.657Z" fill="#EDE0BC"/>
<circle cx="78.5" cy="58.25" r="27.75" fill="#EDE0BC" stroke="#FFBB1D"/>
<circle cx="78.5" cy="58.25" r="23.25" fill="#FFFBEE" stroke="#FFBB1D"/>
<path d="M68.6401 84.3262L64.8379 90.4921" stroke="#FFBB1D"/>
<path d="M64.1721 82.3267L60.5059 87.826" stroke="#FFBB1D"/>
<path d="M58.3092 87.9927L42.1445 110.157" stroke="#FFBB1D"/>
<path d="M65.6405 91.9923L52.6421 117.156" stroke="#FFBB1D"/>
<path d="M57.9766 88.3258L58.2509 88.173C58.851 87.8388 59.5406 87.7008 60.2231 87.7782C60.5018 87.8098 60.7753 87.8769 61.037 87.9779L61.5067 88.1591L61.665 88.2119C62.5472 88.506 63.3488 89.0014 64.0064 89.6589L64.5232 90.1758C64.7334 90.3859 64.9169 90.621 65.0698 90.8758C65.2487 91.174 65.3839 91.4963 65.4712 91.8329L65.6423 92.4919" stroke="#FFBB1D"/>
<path d="M52.9768 116.823L52.267 117.142C51.5795 117.451 50.8379 117.622 50.0844 117.646C49.4992 117.664 48.9146 117.594 48.3507 117.436L47.8727 117.302L47.7123 117.248C46.2956 116.767 45.0054 115.973 43.9376 114.925L43.3202 114.319C42.8376 113.846 42.4758 113.263 42.2655 112.62C42.0039 111.821 41.9873 110.962 42.2177 110.153L42.3115 109.823" stroke="#FFBB1D"/>
</svg>
